<?xml version="1.0" encoding="UTF-8" standalone="no"?>
<!DOCTYPE svg PUBLIC "-//W3C//DTD SVG 1.1//EN"
 "http://www.w3.org/Graphics/SVG/1.1/DTD/svg11.dtd">
<!-- Generated by graphviz version 2.47.1 (20210417.1919)
 -->
<!-- Title: callgraph Pages: 1 -->
<svg width="3575pt" height="332pt"
 viewBox="0.00 0.00 3574.54 332.00" xmlns="http://www.w3.org/2000/svg" xmlns:xlink="http://www.w3.org/1999/xlink">
<g id="graph0" class="graph" transform="scale(1 1) rotate(0) translate(4 328)">
<title>callgraph</title>
<polygon fill="white" stroke="transparent" points="-4,4 -4,-328 3570.54,-328 3570.54,4 -4,4"/>
<!-- _OSSwapInt16 -->
<g id="node1" class="node">
<title>_OSSwapInt16</title>
<ellipse fill="none" stroke="black" cx="3140.14" cy="-162" rx="64.19" ry="18"/>
<text text-anchor="middle" x="3140.14" y="-158.3" font-family="Times,serif" font-size="14.00">_OSSwapInt16</text>
</g>
<!-- accept_request -->
<g id="node2" class="node">
<title>accept_request</title>
<ellipse fill="none" stroke="black" cx="690.14" cy="-234" rx="63.09" ry="18"/>
<text text-anchor="middle" x="690.14" y="-230.3" font-family="Times,serif" font-size="14.00">accept_request</text>
</g>
<!-- *_close -->
<g id="node3" class="node">
<title>*_close</title>
<ellipse fill="none" stroke="black" stroke-dasharray="5,2" cx="2265.14" cy="-90" rx="37.89" ry="18"/>
<text text-anchor="middle" x="2265.14" y="-86.3" font-family="Times,serif" font-size="14.00">*_close</text>
</g>
<!-- accept_request&#45;&gt;*_close -->
<g id="edge1" class="edge">
<title>accept_request&#45;&gt;*_close</title>
<path fill="none" stroke="black" d="M752.72,-231.64C912.09,-227.77 1346.16,-214.63 1706.14,-180 1934.88,-157.99 1995.12,-163.38 2218.14,-108 2221.16,-107.25 2224.26,-106.38 2227.35,-105.43"/>
<polygon fill="black" stroke="black" points="2228.7,-108.67 2237.1,-102.21 2226.51,-102.02 2228.7,-108.67"/>
</g>
<!-- *_stat$INODE64 -->
<g id="node4" class="node">
<title>*_stat$INODE64</title>
<ellipse fill="none" stroke="black" stroke-dasharray="5,2" cx="72.14" cy="-162" rx="72.29" ry="18"/>
<text text-anchor="middle" x="72.14" y="-158.3" font-family="Times,serif" font-size="14.00">*_stat$INODE64</text>
</g>
<!-- accept_request&#45;&gt;*_stat$INODE64 -->
<g id="edge2" class="edge">
<title>accept_request&#45;&gt;*_stat$INODE64</title>
<path fill="none" stroke="black" d="M629.68,-228.87C530.73,-221.7 328.23,-205.22 158.14,-180 150.71,-178.9 142.95,-177.59 135.26,-176.19"/>
<polygon fill="black" stroke="black" points="135.69,-172.71 125.22,-174.32 134.41,-179.6 135.69,-172.71"/>
</g>
<!-- __sprintf_chk -->
<g id="node5" class="node">
<title>__sprintf_chk</title>
<ellipse fill="none" stroke="black" stroke-dasharray="5,2" cx="2380.14" cy="-90" rx="59.59" ry="18"/>
<text text-anchor="middle" x="2380.14" y="-86.3" font-family="Times,serif" font-size="14.00">__sprintf_chk</text>
</g>
<!-- accept_request&#45;&gt;__sprintf_chk -->
<g id="edge3" class="edge">
<title>accept_request&#45;&gt;__sprintf_chk</title>
<path fill="none" stroke="black" d="M753.4,-232.97C932.25,-232.29 1456.64,-226.19 1889.14,-180 2078.77,-159.75 2125.5,-147.15 2312.14,-108 2316.88,-107.01 2321.79,-105.91 2326.7,-104.77"/>
<polygon fill="black" stroke="black" points="2327.81,-108.1 2336.73,-102.38 2326.19,-101.29 2327.81,-108.1"/>
</g>
<!-- __strcat_chk -->
<g id="node6" class="node">
<title>__strcat_chk</title>
<ellipse fill="none" stroke="black" stroke-dasharray="5,2" cx="353.14" cy="-162" rx="55.79" ry="18"/>
<text text-anchor="middle" x="353.14" y="-158.3" font-family="Times,serif" font-size="14.00">__strcat_chk</text>
</g>
<!-- accept_request&#45;&gt;__strcat_chk -->
<g id="edge4" class="edge">
<title>accept_request&#45;&gt;__strcat_chk</title>
<path fill="none" stroke="black" d="M638.82,-223.48C584.97,-213.33 497.91,-196.49 423.14,-180 417.51,-178.76 411.64,-177.41 405.79,-176.04"/>
<polygon fill="black" stroke="black" points="406.56,-172.62 396.02,-173.72 404.94,-179.43 406.56,-172.62"/>
</g>
<!-- execute_cgi -->
<g id="node7" class="node">
<title>execute_cgi</title>
<ellipse fill="none" stroke="black" cx="1349.14" cy="-162" rx="52.79" ry="18"/>
<text text-anchor="middle" x="1349.14" y="-158.3" font-family="Times,serif" font-size="14.00">execute_cgi</text>
</g>
<!-- accept_request&#45;&gt;execute_cgi -->
<g id="edge5" class="edge">
<title>accept_request&#45;&gt;execute_cgi</title>
<path fill="none" stroke="black" d="M748.05,-226.85C872.23,-213.66 1163.08,-182.76 1289.13,-169.38"/>
<polygon fill="black" stroke="black" points="1289.78,-172.83 1299.36,-168.29 1289.05,-165.86 1289.78,-172.83"/>
</g>
<!-- get_line -->
<g id="node8" class="node">
<title>get_line</title>
<ellipse fill="none" stroke="black" cx="418.14" cy="-90" rx="38.99" ry="18"/>
<text text-anchor="middle" x="418.14" y="-86.3" font-family="Times,serif" font-size="14.00">get_line</text>
</g>
<!-- accept_request&#45;&gt;get_line -->
<g id="edge6" class="edge">
<title>accept_request&#45;&gt;get_line</title>
<path fill="none" stroke="black" d="M633.29,-226.13C572.93,-217.8 482.66,-202.11 456.14,-180 437.46,-164.42 427.76,-138 422.85,-117.99"/>
<polygon fill="black" stroke="black" points="426.26,-117.21 420.7,-108.19 419.43,-118.71 426.26,-117.21"/>
</g>
<!-- isspace -->
<g id="node9" class="node">
<title>isspace</title>
<ellipse fill="none" stroke="black" stroke-dasharray="5,2" cx="626.14" cy="-162" rx="36.29" ry="18"/>
<text text-anchor="middle" x="626.14" y="-158.3" font-family="Times,serif" font-size="14.00">isspace</text>
</g>
<!-- accept_request&#45;&gt;isspace -->
<g id="edge7" class="edge">
<title>accept_request&#45;&gt;isspace</title>
<path fill="none" stroke="black" d="M674.98,-216.41C666.81,-207.48 656.6,-196.31 647.63,-186.5"/>
<polygon fill="black" stroke="black" points="650.09,-184.01 640.76,-178.99 644.93,-188.73 650.09,-184.01"/>
</g>
<!-- not_found -->
<g id="node10" class="node">
<title>not_found</title>
<ellipse fill="none" stroke="black" cx="779.14" cy="-90" rx="46.59" ry="18"/>
<text text-anchor="middle" x="779.14" y="-86.3" font-family="Times,serif" font-size="14.00">not_found</text>
</g>
<!-- accept_request&#45;&gt;not_found -->
<g id="edge8" class="edge">
<title>accept_request&#45;&gt;not_found</title>
<path fill="none" stroke="black" d="M700.7,-216.15C716.16,-191.49 745.06,-145.37 763.14,-116.53"/>
<polygon fill="black" stroke="black" points="766.25,-118.16 768.6,-107.82 760.32,-114.44 766.25,-118.16"/>
</g>
<!-- serve_file -->
<g id="node11" class="node">
<title>serve_file</title>
<ellipse fill="none" stroke="black" cx="510.14" cy="-162" rx="44.69" ry="18"/>
<text text-anchor="middle" x="510.14" y="-158.3" font-family="Times,serif" font-size="14.00">serve_file</text>
</g>
<!-- accept_request&#45;&gt;serve_file -->
<g id="edge9" class="edge">
<title>accept_request&#45;&gt;serve_file</title>
<path fill="none" stroke="black" d="M654.15,-219C624.34,-207.41 581.99,-190.94 550.93,-178.86"/>
<polygon fill="black" stroke="black" points="551.86,-175.47 541.27,-175.11 549.32,-181.99 551.86,-175.47"/>
</g>
<!-- strcasecmp -->
<g id="node12" class="node">
<title>strcasecmp</title>
<ellipse fill="none" stroke="black" stroke-dasharray="5,2" cx="2159.14" cy="-90" rx="50.09" ry="18"/>
<text text-anchor="middle" x="2159.14" y="-86.3" font-family="Times,serif" font-size="14.00">strcasecmp</text>
</g>
<!-- accept_request&#45;&gt;strcasecmp -->
<g id="edge10" class="edge">
<title>accept_request&#45;&gt;strcasecmp</title>
<path fill="none" stroke="black" d="M752.24,-230.52C891.74,-224.64 1240.46,-208.19 1531.14,-180 1776.08,-156.25 1837.65,-149.92 2080.14,-108 2089.28,-106.42 2098.97,-104.52 2108.31,-102.58"/>
<polygon fill="black" stroke="black" points="2109.21,-105.96 2118.26,-100.46 2107.76,-99.12 2109.21,-105.96"/>
</g>
<!-- strcmp -->
<g id="node13" class="node">
<title>strcmp</title>
<ellipse fill="none" stroke="black" stroke-dasharray="5,2" cx="510.14" cy="-90" rx="35.19" ry="18"/>
<text text-anchor="middle" x="510.14" y="-86.3" font-family="Times,serif" font-size="14.00">strcmp</text>
</g>
<!-- accept_request&#45;&gt;strcmp -->
<g id="edge11" class="edge">
<title>accept_request&#45;&gt;strcmp</title>
<path fill="none" stroke="black" d="M691.26,-215.66C691.56,-195.87 688.94,-163.69 671.14,-144 636.08,-105.21 608.73,-124.57 559.14,-108 555.56,-106.8 551.83,-105.54 548.11,-104.27"/>
<polygon fill="black" stroke="black" points="548.94,-100.85 538.35,-100.91 546.67,-107.47 548.94,-100.85"/>
</g>
<!-- strlen -->
<g id="node14" class="node">
<title>strlen</title>
<ellipse fill="none" stroke="black" stroke-dasharray="5,2" cx="677.14" cy="-18" rx="30.59" ry="18"/>
<text text-anchor="middle" x="677.14" y="-14.3" font-family="Times,serif" font-size="14.00">strlen</text>
</g>
<!-- accept_request&#45;&gt;strlen -->
<g id="edge12" class="edge">
<title>accept_request&#45;&gt;strlen</title>
<path fill="none" stroke="black" d="M626.98,-232.92C466.66,-230.72 65.35,-211.52 191.14,-72 217.1,-43.21 499.63,-40.35 538.14,-36 571.67,-32.21 609.69,-27.53 637.49,-24.05"/>
<polygon fill="black" stroke="black" points="638.12,-27.49 647.61,-22.77 637.25,-20.55 638.12,-27.49"/>
</g>
<!-- unimplemented -->
<g id="node15" class="node">
<title>unimplemented</title>
<ellipse fill="none" stroke="black" cx="1862.14" cy="-90" rx="66.09" ry="18"/>
<text text-anchor="middle" x="1862.14" y="-86.3" font-family="Times,serif" font-size="14.00">unimplemented</text>
</g>
<!-- accept_request&#45;&gt;unimplemented -->
<g id="edge13" class="edge">
<title>accept_request&#45;&gt;unimplemented</title>
<path fill="none" stroke="black" d="M752.6,-230.85C877.92,-225.98 1168.81,-212 1411.14,-180 1553.85,-161.16 1719.33,-124.69 1804.66,-104.78"/>
<polygon fill="black" stroke="black" points="1805.48,-108.19 1814.42,-102.5 1803.88,-101.37 1805.48,-108.19"/>
</g>
<!-- execute_cgi&#45;&gt;*_close -->
<g id="edge25" class="edge">
<title>execute_cgi&#45;&gt;*_close</title>
<path fill="none" stroke="black" d="M1401.4,-159.77C1564.18,-155.63 2060.6,-140.59 2218.14,-108 2221.37,-107.33 2224.68,-106.49 2227.97,-105.53"/>
<polygon fill="black" stroke="black" points="2229.24,-108.8 2237.69,-102.41 2227.1,-102.14 2229.24,-108.8"/>
</g>
<!-- execute_cgi&#45;&gt;__sprintf_chk -->
<g id="edge32" class="edge">
<title>execute_cgi&#45;&gt;__sprintf_chk</title>
<path fill="none" stroke="black" d="M1401.96,-161.6C1547.78,-162.5 1967.98,-160.01 2312.14,-108 2317.28,-107.22 2322.59,-106.24 2327.87,-105.13"/>
<polygon fill="black" stroke="black" points="2328.96,-108.47 2337.95,-102.87 2327.43,-101.64 2328.96,-108.47"/>
</g>
<!-- execute_cgi&#45;&gt;get_line -->
<g id="edge40" class="edge">
<title>execute_cgi&#45;&gt;get_line</title>
<path fill="none" stroke="black" d="M1296.63,-159.78C1131.86,-155.63 626.53,-140.54 466.14,-108 462.89,-107.34 459.57,-106.51 456.25,-105.57"/>
<polygon fill="black" stroke="black" points="457.04,-102.15 446.45,-102.5 454.95,-108.83 457.04,-102.15"/>
</g>
<!-- execute_cgi&#45;&gt;strcasecmp -->
<g id="edge43" class="edge">
<title>execute_cgi&#45;&gt;strcasecmp</title>
<path fill="none" stroke="black" d="M1402,-160.66C1524.65,-159.12 1837.72,-150.94 2095.14,-108 2100.6,-107.09 2106.27,-105.92 2111.87,-104.62"/>
<polygon fill="black" stroke="black" points="2112.96,-107.96 2121.84,-102.18 2111.29,-101.16 2112.96,-107.96"/>
</g>
<!-- execute_cgi&#45;&gt;strcmp -->
<g id="edge44" class="edge">
<title>execute_cgi&#45;&gt;strcmp</title>
<path fill="none" stroke="black" d="M1296.86,-159.31C1144.2,-154.1 701.01,-136.83 559.14,-108 555.02,-107.16 550.78,-106.07 546.59,-104.83"/>
<polygon fill="black" stroke="black" points="547.59,-101.48 537,-101.76 545.45,-108.14 547.59,-101.48"/>
</g>
<!-- execute_cgi&#45;&gt;strlen -->
<g id="edge45" class="edge">
<title>execute_cgi&#45;&gt;strlen</title>
<path fill="none" stroke="black" d="M1296.45,-161.15C1138.2,-161.05 675.27,-156.57 630.14,-108 611.58,-88.02 633.12,-59.33 652.76,-39.97"/>
<polygon fill="black" stroke="black" points="655.23,-42.45 660.11,-33.04 650.43,-37.35 655.23,-42.45"/>
</g>
<!-- bad_request -->
<g id="node16" class="node">
<title>bad_request</title>
<ellipse fill="none" stroke="black" cx="2000.14" cy="-90" rx="53.09" ry="18"/>
<text text-anchor="middle" x="2000.14" y="-86.3" font-family="Times,serif" font-size="14.00">bad_request</text>
</g>
<!-- execute_cgi&#45;&gt;bad_request -->
<g id="edge34" class="edge">
<title>execute_cgi&#45;&gt;bad_request</title>
<path fill="none" stroke="black" d="M1401.46,-159.33C1504.65,-155.37 1741.4,-142.96 1937.14,-108 1941.91,-107.15 1946.84,-106.11 1951.75,-104.96"/>
<polygon fill="black" stroke="black" points="1952.87,-108.29 1961.73,-102.5 1951.19,-101.5 1952.87,-108.29"/>
</g>
<!-- *_send -->
<g id="node17" class="node">
<title>*_send</title>
<ellipse fill="none" stroke="black" stroke-dasharray="5,2" cx="1513.14" cy="-18" rx="36" ry="18"/>
<text text-anchor="middle" x="1513.14" y="-14.3" font-family="Times,serif" font-size="14.00">*_send</text>
</g>
<!-- execute_cgi&#45;&gt;*_send -->
<g id="edge29" class="edge">
<title>execute_cgi&#45;&gt;*_send</title>
<path fill="none" stroke="black" d="M1398.05,-155.33C1429.94,-149.04 1469.97,-135.82 1494.14,-108 1508.83,-91.09 1513.08,-65.62 1513.95,-46.26"/>
<polygon fill="black" stroke="black" points="1517.45,-46.28 1514.12,-36.22 1510.45,-46.15 1517.45,-46.28"/>
</g>
<!-- sprintf -->
<g id="node18" class="node">
<title>sprintf</title>
<ellipse fill="none" stroke="black" stroke-dasharray="5,2" cx="1734.14" cy="-18" rx="33.6" ry="18"/>
<text text-anchor="middle" x="1734.14" y="-14.3" font-family="Times,serif" font-size="14.00">sprintf</text>
</g>
<!-- execute_cgi&#45;&gt;sprintf -->
<g id="edge42" class="edge">
<title>execute_cgi&#45;&gt;sprintf</title>
<path fill="none" stroke="black" d="M1401.96,-161.11C1559.41,-160.9 2017.46,-156.13 2062.14,-108 2073.03,-96.27 2072.52,-84.18 2062.14,-72 2026.22,-29.81 1859.48,-21.09 1778.51,-19.37"/>
<polygon fill="black" stroke="black" points="1778.2,-15.87 1768.14,-19.18 1778.07,-22.86 1778.2,-15.87"/>
</g>
<!-- cannot_execute -->
<g id="node19" class="node">
<title>cannot_execute</title>
<ellipse fill="none" stroke="black" cx="1607.14" cy="-90" rx="65.79" ry="18"/>
<text text-anchor="middle" x="1607.14" y="-86.3" font-family="Times,serif" font-size="14.00">cannot_execute</text>
</g>
<!-- execute_cgi&#45;&gt;cannot_execute -->
<g id="edge35" class="edge">
<title>execute_cgi&#45;&gt;cannot_execute</title>
<path fill="none" stroke="black" d="M1389.17,-150.14C1433,-138.25 1503.55,-119.11 1552.46,-105.84"/>
<polygon fill="black" stroke="black" points="1553.51,-109.18 1562.25,-103.18 1551.68,-102.42 1553.51,-109.18"/>
</g>
<!-- exit -->
<g id="node24" class="node">
<title>exit</title>
<ellipse fill="none" stroke="black" stroke-dasharray="5,2" cx="2485.14" cy="-90" rx="27" ry="18"/>
<text text-anchor="middle" x="2485.14" y="-86.3" font-family="Times,serif" font-size="14.00">exit</text>
</g>
<!-- execute_cgi&#45;&gt;exit -->
<g id="edge38" class="edge">
<title>execute_cgi&#45;&gt;exit</title>
<path fill="none" stroke="black" d="M1401.95,-161.18C1592.95,-161.41 2247.18,-158.42 2449.14,-108 2451.32,-107.46 2453.53,-106.78 2455.72,-106"/>
<polygon fill="black" stroke="black" points="2457.18,-109.19 2465.1,-102.16 2454.52,-102.71 2457.18,-109.19"/>
</g>
<!-- *_putenv -->
<g id="node26" class="node">
<title>*_putenv</title>
<ellipse fill="none" stroke="black" stroke-dasharray="5,2" cx="1734.14" cy="-90" rx="43.59" ry="18"/>
<text text-anchor="middle" x="1734.14" y="-86.3" font-family="Times,serif" font-size="14.00">*_putenv</text>
</g>
<!-- execute_cgi&#45;&gt;*_putenv -->
<g id="edge26" class="edge">
<title>execute_cgi&#45;&gt;*_putenv</title>
<path fill="none" stroke="black" d="M1398.43,-155.63C1463.85,-147.94 1582.7,-132.01 1682.14,-108 1685.52,-107.18 1689,-106.25 1692.48,-105.26"/>
<polygon fill="black" stroke="black" points="1693.63,-108.57 1702.19,-102.32 1691.61,-101.86 1693.63,-108.57"/>
</g>
<!-- *_read -->
<g id="node27" class="node">
<title>*_read</title>
<ellipse fill="none" stroke="black" stroke-dasharray="5,2" cx="878.14" cy="-90" rx="34.39" ry="18"/>
<text text-anchor="middle" x="878.14" y="-86.3" font-family="Times,serif" font-size="14.00">*_read</text>
</g>
<!-- execute_cgi&#45;&gt;*_read -->
<g id="edge27" class="edge">
<title>execute_cgi&#45;&gt;*_read</title>
<path fill="none" stroke="black" d="M1297.12,-158.65C1215.96,-154.08 1054.73,-141.3 922.14,-108 919.31,-107.29 916.42,-106.45 913.53,-105.52"/>
<polygon fill="black" stroke="black" points="914.45,-102.14 903.86,-102.15 912.15,-108.75 914.45,-102.14"/>
</g>
<!-- *_recv -->
<g id="node28" class="node">
<title>*_recv</title>
<ellipse fill="none" stroke="black" stroke-dasharray="5,2" cx="495.14" cy="-18" rx="34.39" ry="18"/>
<text text-anchor="middle" x="495.14" y="-14.3" font-family="Times,serif" font-size="14.00">*_recv</text>
</g>
<!-- execute_cgi&#45;&gt;*_recv -->
<g id="edge28" class="edge">
<title>execute_cgi&#45;&gt;*_recv</title>
<path fill="none" stroke="black" d="M1296.46,-160.87C1150.57,-159.91 743.84,-153.17 619.14,-108 579.47,-93.63 541.18,-62.71 517.9,-41.38"/>
<polygon fill="black" stroke="black" points="520,-38.56 510.31,-34.28 515.22,-43.67 520,-38.56"/>
</g>
<!-- *_waitpid -->
<g id="node29" class="node">
<title>*_waitpid</title>
<ellipse fill="none" stroke="black" stroke-dasharray="5,2" cx="977.14" cy="-90" rx="46.29" ry="18"/>
<text text-anchor="middle" x="977.14" y="-86.3" font-family="Times,serif" font-size="14.00">*_waitpid</text>
</g>
<!-- execute_cgi&#45;&gt;*_waitpid -->
<g id="edge30" class="edge">
<title>execute_cgi&#45;&gt;*_waitpid</title>
<path fill="none" stroke="black" d="M1300.68,-154.96C1238.14,-146.69 1126.21,-130.29 1032.14,-108 1028.53,-107.14 1024.8,-106.18 1021.07,-105.15"/>
<polygon fill="black" stroke="black" points="1021.85,-101.73 1011.27,-102.33 1019.92,-108.46 1021.85,-101.73"/>
</g>
<!-- *_write -->
<g id="node30" class="node">
<title>*_write</title>
<ellipse fill="none" stroke="black" stroke-dasharray="5,2" cx="1079.14" cy="-90" rx="37.89" ry="18"/>
<text text-anchor="middle" x="1079.14" y="-86.3" font-family="Times,serif" font-size="14.00">*_write</text>
</g>
<!-- execute_cgi&#45;&gt;*_write -->
<g id="edge31" class="edge">
<title>execute_cgi&#45;&gt;*_write</title>
<path fill="none" stroke="black" d="M1305.17,-152.09C1259.91,-142.57 1187.53,-126.33 1126.14,-108 1123.24,-107.13 1120.26,-106.19 1117.27,-105.2"/>
<polygon fill="black" stroke="black" points="1118.4,-101.89 1107.8,-101.95 1116.13,-108.51 1118.4,-101.89"/>
</g>
<!-- atoi -->
<g id="node31" class="node">
<title>atoi</title>
<ellipse fill="none" stroke="black" stroke-dasharray="5,2" cx="1162.14" cy="-90" rx="27" ry="18"/>
<text text-anchor="middle" x="1162.14" y="-86.3" font-family="Times,serif" font-size="14.00">atoi</text>
</g>
<!-- execute_cgi&#45;&gt;atoi -->
<g id="edge33" class="edge">
<title>execute_cgi&#45;&gt;atoi</title>
<path fill="none" stroke="black" d="M1312.13,-149.2C1281.31,-139.09 1236.44,-123.71 1198.14,-108 1196.32,-107.25 1194.46,-106.46 1192.59,-105.64"/>
<polygon fill="black" stroke="black" points="1193.85,-102.38 1183.3,-101.44 1190.97,-108.75 1193.85,-102.38"/>
</g>
<!-- dup2 -->
<g id="node32" class="node">
<title>dup2</title>
<ellipse fill="none" stroke="black" stroke-dasharray="5,2" cx="1236.14" cy="-90" rx="28.7" ry="18"/>
<text text-anchor="middle" x="1236.14" y="-86.3" font-family="Times,serif" font-size="14.00">dup2</text>
</g>
<!-- execute_cgi&#45;&gt;dup2 -->
<g id="edge36" class="edge">
<title>execute_cgi&#45;&gt;dup2</title>
<path fill="none" stroke="black" d="M1324.9,-145.98C1307.18,-135 1283.09,-120.08 1264.48,-108.55"/>
<polygon fill="black" stroke="black" points="1266.18,-105.49 1255.83,-103.2 1262.49,-111.44 1266.18,-105.49"/>
</g>
<!-- execl -->
<g id="node33" class="node">
<title>execl</title>
<ellipse fill="none" stroke="black" stroke-dasharray="5,2" cx="1312.14" cy="-90" rx="29.5" ry="18"/>
<text text-anchor="middle" x="1312.14" y="-86.3" font-family="Times,serif" font-size="14.00">execl</text>
</g>
<!-- execute_cgi&#45;&gt;execl -->
<g id="edge37" class="edge">
<title>execute_cgi&#45;&gt;execl</title>
<path fill="none" stroke="black" d="M1340.19,-144.05C1335.81,-135.77 1330.44,-125.62 1325.58,-116.42"/>
<polygon fill="black" stroke="black" points="1328.53,-114.51 1320.76,-107.31 1322.34,-117.78 1328.53,-114.51"/>
</g>
<!-- fork -->
<g id="node34" class="node">
<title>fork</title>
<ellipse fill="none" stroke="black" stroke-dasharray="5,2" cx="1386.14" cy="-90" rx="27" ry="18"/>
<text text-anchor="middle" x="1386.14" y="-86.3" font-family="Times,serif" font-size="14.00">fork</text>
</g>
<!-- execute_cgi&#45;&gt;fork -->
<g id="edge39" class="edge">
<title>execute_cgi&#45;&gt;fork</title>
<path fill="none" stroke="black" d="M1358.1,-144.05C1362.48,-135.77 1367.85,-125.62 1372.71,-116.42"/>
<polygon fill="black" stroke="black" points="1375.95,-117.78 1377.52,-107.31 1369.76,-114.51 1375.95,-117.78"/>
</g>
<!-- pipe -->
<g id="node35" class="node">
<title>pipe</title>
<ellipse fill="none" stroke="black" stroke-dasharray="5,2" cx="1458.14" cy="-90" rx="27" ry="18"/>
<text text-anchor="middle" x="1458.14" y="-86.3" font-family="Times,serif" font-size="14.00">pipe</text>
</g>
<!-- execute_cgi&#45;&gt;pipe -->
<g id="edge41" class="edge">
<title>execute_cgi&#45;&gt;pipe</title>
<path fill="none" stroke="black" d="M1372.79,-145.81C1389.75,-134.92 1412.65,-120.22 1430.45,-108.78"/>
<polygon fill="black" stroke="black" points="1432.72,-111.49 1439.24,-103.14 1428.94,-105.6 1432.72,-111.49"/>
</g>
<!-- get_line&#45;&gt;*_recv -->
<g id="edge46" class="edge">
<title>get_line&#45;&gt;*_recv</title>
<path fill="none" stroke="black" d="M435.23,-73.46C445.74,-63.91 459.38,-51.51 470.98,-40.96"/>
<polygon fill="black" stroke="black" points="473.59,-43.33 478.63,-34.01 468.88,-38.15 473.59,-43.33"/>
</g>
<!-- not_found&#45;&gt;strlen -->
<g id="edge58" class="edge">
<title>not_found&#45;&gt;strlen</title>
<path fill="none" stroke="black" d="M757.26,-73.98C741.95,-63.48 721.37,-49.35 704.91,-38.05"/>
<polygon fill="black" stroke="black" points="706.47,-34.88 696.24,-32.11 702.51,-40.65 706.47,-34.88"/>
</g>
<!-- not_found&#45;&gt;*_send -->
<g id="edge56" class="edge">
<title>not_found&#45;&gt;*_send</title>
<path fill="none" stroke="black" d="M812.91,-77.47C820.17,-75.35 827.85,-73.37 835.14,-72 1069.77,-27.76 1356.8,-20.34 1467.02,-19.18"/>
<polygon fill="black" stroke="black" points="1467.16,-22.68 1477.13,-19.08 1467.1,-15.68 1467.16,-22.68"/>
</g>
<!-- not_found&#45;&gt;sprintf -->
<g id="edge57" class="edge">
<title>not_found&#45;&gt;sprintf</title>
<path fill="none" stroke="black" d="M812.58,-77.39C819.93,-75.25 827.74,-73.29 835.14,-72 1152.11,-16.86 1237.27,-59.47 1558.14,-36 1603.7,-32.67 1655.77,-27.46 1691.38,-23.69"/>
<polygon fill="black" stroke="black" points="1691.85,-27.16 1701.42,-22.62 1691.11,-20.2 1691.85,-27.16"/>
</g>
<!-- serve_file&#45;&gt;get_line -->
<g id="edge62" class="edge">
<title>serve_file&#45;&gt;get_line</title>
<path fill="none" stroke="black" d="M490.18,-145.81C477.1,-135.86 459.84,-122.73 445.49,-111.81"/>
<polygon fill="black" stroke="black" points="447.51,-108.95 437.44,-105.68 443.28,-114.52 447.51,-108.95"/>
</g>
<!-- serve_file&#45;&gt;not_found -->
<g id="edge64" class="edge">
<title>serve_file&#45;&gt;not_found</title>
<path fill="none" stroke="black" d="M547.62,-151.99C599.66,-139.43 691.14,-117.18 724.14,-108 727.52,-107.06 731,-106.06 734.5,-105.03"/>
<polygon fill="black" stroke="black" points="735.74,-108.31 744.32,-102.09 733.73,-101.61 735.74,-108.31"/>
</g>
<!-- serve_file&#45;&gt;strcmp -->
<g id="edge65" class="edge">
<title>serve_file&#45;&gt;strcmp</title>
<path fill="none" stroke="black" d="M510.14,-143.7C510.14,-135.98 510.14,-126.71 510.14,-118.11"/>
<polygon fill="black" stroke="black" points="513.64,-118.1 510.14,-108.1 506.64,-118.1 513.64,-118.1"/>
</g>
<!-- cat -->
<g id="node20" class="node">
<title>cat</title>
<ellipse fill="none" stroke="black" cx="117.14" cy="-90" rx="27" ry="18"/>
<text text-anchor="middle" x="117.14" y="-86.3" font-family="Times,serif" font-size="14.00">cat</text>
</g>
<!-- serve_file&#45;&gt;cat -->
<g id="edge60" class="edge">
<title>serve_file&#45;&gt;cat</title>
<path fill="none" stroke="black" d="M470.33,-153.42C454.16,-150.39 435.27,-146.94 418.14,-144 317.47,-126.72 291.43,-127.45 191.14,-108 178.3,-105.51 164.3,-102.4 151.97,-99.52"/>
<polygon fill="black" stroke="black" points="152.6,-96.07 142.06,-97.17 150.98,-102.88 152.6,-96.07"/>
</g>
<!-- headers -->
<g id="node36" class="node">
<title>headers</title>
<ellipse fill="none" stroke="black" cx="677.14" cy="-90" rx="37.89" ry="18"/>
<text text-anchor="middle" x="677.14" y="-86.3" font-family="Times,serif" font-size="14.00">headers</text>
</g>
<!-- serve_file&#45;&gt;headers -->
<g id="edge63" class="edge">
<title>serve_file&#45;&gt;headers</title>
<path fill="none" stroke="black" d="M540,-148.49C568.11,-136.7 610.27,-119.03 640.43,-106.39"/>
<polygon fill="black" stroke="black" points="641.89,-109.57 649.76,-102.48 639.18,-103.12 641.89,-109.57"/>
</g>
<!-- *_fopen -->
<g id="node42" class="node">
<title>*_fopen</title>
<ellipse fill="none" stroke="black" stroke-dasharray="5,2" cx="321.14" cy="-90" rx="39.79" ry="18"/>
<text text-anchor="middle" x="321.14" y="-86.3" font-family="Times,serif" font-size="14.00">*_fopen</text>
</g>
<!-- serve_file&#45;&gt;*_fopen -->
<g id="edge59" class="edge">
<title>serve_file&#45;&gt;*_fopen</title>
<path fill="none" stroke="black" d="M478.08,-149.13C445.54,-137.07 395.13,-118.4 360.26,-105.49"/>
<polygon fill="black" stroke="black" points="361.46,-102.2 350.87,-102.01 359.03,-108.76 361.46,-102.2"/>
</g>
<!-- fclose -->
<g id="node43" class="node">
<title>fclose</title>
<ellipse fill="none" stroke="black" stroke-dasharray="5,2" cx="232.14" cy="-90" rx="31.7" ry="18"/>
<text text-anchor="middle" x="232.14" y="-86.3" font-family="Times,serif" font-size="14.00">fclose</text>
</g>
<!-- serve_file&#45;&gt;fclose -->
<g id="edge61" class="edge">
<title>serve_file&#45;&gt;fclose</title>
<path fill="none" stroke="black" d="M470.7,-153.13C413.07,-141.47 308.72,-119.74 272.14,-108 269.9,-107.28 267.61,-106.48 265.32,-105.64"/>
<polygon fill="black" stroke="black" points="266.57,-102.37 255.99,-101.97 264.01,-108.89 266.57,-102.37"/>
</g>
<!-- unimplemented&#45;&gt;strlen -->
<g id="edge75" class="edge">
<title>unimplemented&#45;&gt;strlen</title>
<path fill="none" stroke="black" d="M1815.57,-77.11C1806.21,-75.1 1796.4,-73.26 1787.14,-72 1574.28,-43.02 891.75,-24.35 717.8,-19.99"/>
<polygon fill="black" stroke="black" points="717.86,-16.49 707.78,-19.74 717.69,-23.48 717.86,-16.49"/>
</g>
<!-- unimplemented&#45;&gt;*_send -->
<g id="edge73" class="edge">
<title>unimplemented&#45;&gt;*_send</title>
<path fill="none" stroke="black" d="M1813.38,-77.71C1804.65,-75.76 1795.64,-73.78 1787.14,-72 1705.62,-54.88 1610.02,-36.85 1556.02,-26.86"/>
<polygon fill="black" stroke="black" points="1556.58,-23.4 1546.11,-25.03 1555.31,-30.28 1556.58,-23.4"/>
</g>
<!-- unimplemented&#45;&gt;sprintf -->
<g id="edge74" class="edge">
<title>unimplemented&#45;&gt;sprintf</title>
<path fill="none" stroke="black" d="M1834.05,-73.64C1813.92,-62.63 1786.79,-47.79 1765.88,-36.35"/>
<polygon fill="black" stroke="black" points="1767.5,-33.25 1757.04,-31.52 1764.14,-39.39 1767.5,-33.25"/>
</g>
<!-- bad_request&#45;&gt;*_send -->
<g id="edge14" class="edge">
<title>bad_request&#45;&gt;*_send</title>
<path fill="none" stroke="black" d="M1961.36,-77.63C1953.4,-75.55 1945.04,-73.55 1937.14,-72 1865.14,-57.86 1651.21,-33.92 1557.71,-23.77"/>
<polygon fill="black" stroke="black" points="1558.04,-20.29 1547.72,-22.69 1557.28,-27.25 1558.04,-20.29"/>
</g>
<!-- bad_request&#45;&gt;sprintf -->
<g id="edge15" class="edge">
<title>bad_request&#45;&gt;sprintf</title>
<path fill="none" stroke="black" d="M1959.83,-78.07C1952.29,-76.04 1944.48,-73.95 1937.14,-72 1880.51,-56.97 1814.89,-39.9 1773.95,-29.29"/>
<polygon fill="black" stroke="black" points="1774.65,-25.86 1764.09,-26.74 1772.89,-32.63 1774.65,-25.86"/>
</g>
<!-- cannot_execute&#45;&gt;strlen -->
<g id="edge18" class="edge">
<title>cannot_execute&#45;&gt;strlen</title>
<path fill="none" stroke="black" d="M1552.66,-79.85C1534.13,-76.99 1513.28,-74.06 1494.14,-72 1197.14,-40.08 837.18,-24.85 717.79,-20.42"/>
<polygon fill="black" stroke="black" points="717.76,-16.92 707.64,-20.05 717.51,-23.91 717.76,-16.92"/>
</g>
<!-- cannot_execute&#45;&gt;*_send -->
<g id="edge16" class="edge">
<title>cannot_execute&#45;&gt;*_send</title>
<path fill="none" stroke="black" d="M1585.34,-72.76C1571.92,-62.77 1554.61,-49.88 1540.3,-39.23"/>
<polygon fill="black" stroke="black" points="1542.39,-36.42 1532.28,-33.25 1538.21,-42.03 1542.39,-36.42"/>
</g>
<!-- cannot_execute&#45;&gt;sprintf -->
<g id="edge17" class="edge">
<title>cannot_execute&#45;&gt;sprintf</title>
<path fill="none" stroke="black" d="M1635.01,-73.64C1654.99,-62.63 1681.91,-47.79 1702.66,-36.35"/>
<polygon fill="black" stroke="black" points="1704.35,-39.42 1711.42,-31.52 1700.97,-33.29 1704.35,-39.42"/>
</g>
<!-- cat&#45;&gt;strlen -->
<g id="edge22" class="edge">
<title>cat&#45;&gt;strlen</title>
<path fill="none" stroke="black" d="M138.44,-78.76C144.66,-76.16 151.56,-73.64 158.14,-72 322.77,-31.06 369.49,-54.3 538.14,-36 571.68,-32.36 609.71,-27.67 637.5,-24.14"/>
<polygon fill="black" stroke="black" points="638.14,-27.59 647.61,-22.85 637.25,-20.64 638.14,-27.59"/>
</g>
<!-- cat&#45;&gt;*_send -->
<g id="edge19" class="edge">
<title>cat&#45;&gt;*_send</title>
<path fill="none" stroke="black" d="M141.6,-82.18C155.92,-78.49 174.42,-74.24 191.14,-72 445.69,-37.96 1264.21,-22.95 1467.24,-19.7"/>
<polygon fill="black" stroke="black" points="1467.32,-23.19 1477.27,-19.54 1467.21,-16.2 1467.32,-23.19"/>
</g>
<!-- feof -->
<g id="node21" class="node">
<title>feof</title>
<ellipse fill="none" stroke="black" stroke-dasharray="5,2" cx="154.14" cy="-18" rx="27" ry="18"/>
<text text-anchor="middle" x="154.14" y="-14.3" font-family="Times,serif" font-size="14.00">feof</text>
</g>
<!-- cat&#45;&gt;feof -->
<g id="edge20" class="edge">
<title>cat&#45;&gt;feof</title>
<path fill="none" stroke="black" d="M125.73,-72.76C130.21,-64.28 135.79,-53.71 140.82,-44.2"/>
<polygon fill="black" stroke="black" points="144.03,-45.62 145.61,-35.15 137.84,-42.35 144.03,-45.62"/>
</g>
<!-- fgets -->
<g id="node22" class="node">
<title>fgets</title>
<ellipse fill="none" stroke="black" stroke-dasharray="5,2" cx="81.14" cy="-18" rx="27.9" ry="18"/>
<text text-anchor="middle" x="81.14" y="-14.3" font-family="Times,serif" font-size="14.00">fgets</text>
</g>
<!-- cat&#45;&gt;fgets -->
<g id="edge21" class="edge">
<title>cat&#45;&gt;fgets</title>
<path fill="none" stroke="black" d="M108.79,-72.76C104.49,-64.4 99.15,-54.02 94.31,-44.61"/>
<polygon fill="black" stroke="black" points="97.38,-42.93 89.7,-35.63 91.16,-46.13 97.38,-42.93"/>
</g>
<!-- error_die -->
<g id="node23" class="node">
<title>error_die</title>
<ellipse fill="none" stroke="black" cx="2485.14" cy="-162" rx="42.79" ry="18"/>
<text text-anchor="middle" x="2485.14" y="-158.3" font-family="Times,serif" font-size="14.00">error_die</text>
</g>
<!-- error_die&#45;&gt;exit -->
<g id="edge23" class="edge">
<title>error_die&#45;&gt;exit</title>
<path fill="none" stroke="black" d="M2485.14,-143.7C2485.14,-135.98 2485.14,-126.71 2485.14,-118.11"/>
<polygon fill="black" stroke="black" points="2488.64,-118.1 2485.14,-108.1 2481.64,-118.1 2488.64,-118.1"/>
</g>
<!-- perror -->
<g id="node25" class="node">
<title>perror</title>
<ellipse fill="none" stroke="black" stroke-dasharray="5,2" cx="2897.14" cy="-90" rx="32.49" ry="18"/>
<text text-anchor="middle" x="2897.14" y="-86.3" font-family="Times,serif" font-size="14.00">perror</text>
</g>
<!-- error_die&#45;&gt;perror -->
<g id="edge24" class="edge">
<title>error_die&#45;&gt;perror</title>
<path fill="none" stroke="black" d="M2516.8,-149.71C2523.46,-147.6 2530.49,-145.57 2537.14,-144 2650.39,-117.36 2786.99,-101.62 2854.75,-94.89"/>
<polygon fill="black" stroke="black" points="2855.4,-98.34 2865.02,-93.88 2854.72,-91.37 2855.4,-98.34"/>
</g>
<!-- headers&#45;&gt;strlen -->
<g id="edge49" class="edge">
<title>headers&#45;&gt;strlen</title>
<path fill="none" stroke="black" d="M677.14,-71.7C677.14,-63.98 677.14,-54.71 677.14,-46.11"/>
<polygon fill="black" stroke="black" points="680.64,-46.1 677.14,-36.1 673.64,-46.1 680.64,-46.1"/>
</g>
<!-- headers&#45;&gt;*_send -->
<g id="edge47" class="edge">
<title>headers&#45;&gt;*_send</title>
<path fill="none" stroke="black" d="M704.49,-77.44C710.54,-75.29 716.98,-73.32 723.14,-72 866.73,-41.32 1320.78,-24.94 1467.17,-20.35"/>
<polygon fill="black" stroke="black" points="1467.28,-23.85 1477.17,-20.04 1467.07,-16.86 1467.28,-23.85"/>
</g>
<!-- headers&#45;&gt;sprintf -->
<g id="edge48" class="edge">
<title>headers&#45;&gt;sprintf</title>
<path fill="none" stroke="black" d="M704.47,-77.32C710.52,-75.19 716.97,-73.24 723.14,-72 905.22,-35.37 1372.87,-48.93 1558.14,-36 1603.71,-32.82 1655.78,-27.59 1691.38,-23.77"/>
<polygon fill="black" stroke="black" points="1691.86,-27.24 1701.43,-22.69 1691.11,-20.28 1691.86,-27.24"/>
</g>
<!-- main -->
<g id="node37" class="node">
<title>main</title>
<ellipse fill="none" stroke="black" cx="3267.14" cy="-306" rx="28.7" ry="18"/>
<text text-anchor="middle" x="3267.14" y="-302.3" font-family="Times,serif" font-size="14.00">main</text>
</g>
<!-- main&#45;&gt;error_die -->
<g id="edge51" class="edge">
<title>main&#45;&gt;error_die</title>
<path fill="none" stroke="black" d="M3238.91,-302.74C3169.26,-296.92 2983.79,-279.87 2831.14,-252 2698.8,-227.84 2666.5,-216.93 2537.14,-180 2533.85,-179.06 2530.45,-178.05 2527.04,-177"/>
<polygon fill="black" stroke="black" points="2528.07,-173.65 2517.48,-173.99 2525.97,-180.33 2528.07,-173.65"/>
</g>
<!-- main&#45;&gt;perror -->
<g id="edge52" class="edge">
<title>main&#45;&gt;perror</title>
<path fill="none" stroke="black" d="M3261.98,-288.08C3249.61,-247.73 3218.85,-148.87 3213.14,-144 3172.69,-109.46 3016.31,-96.95 2939.79,-92.83"/>
<polygon fill="black" stroke="black" points="2939.72,-89.32 2929.55,-92.3 2939.36,-96.31 2939.72,-89.32"/>
</g>
<!-- *_accept -->
<g id="node38" class="node">
<title>*_accept</title>
<ellipse fill="none" stroke="black" stroke-dasharray="5,2" cx="3302.14" cy="-234" rx="42.49" ry="18"/>
<text text-anchor="middle" x="3302.14" y="-230.3" font-family="Times,serif" font-size="14.00">*_accept</text>
</g>
<!-- main&#45;&gt;*_accept -->
<g id="edge50" class="edge">
<title>main&#45;&gt;*_accept</title>
<path fill="none" stroke="black" d="M3275.44,-288.41C3279.52,-280.25 3284.53,-270.22 3289.11,-261.07"/>
<polygon fill="black" stroke="black" points="3292.32,-262.47 3293.67,-251.96 3286.06,-259.34 3292.32,-262.47"/>
</g>
<!-- printf -->
<g id="node39" class="node">
<title>printf</title>
<ellipse fill="none" stroke="black" stroke-dasharray="5,2" cx="3393.14" cy="-234" rx="30.59" ry="18"/>
<text text-anchor="middle" x="3393.14" y="-230.3" font-family="Times,serif" font-size="14.00">printf</text>
</g>
<!-- main&#45;&gt;printf -->
<g id="edge53" class="edge">
<title>main&#45;&gt;printf</title>
<path fill="none" stroke="black" d="M3287.95,-293.44C3308.31,-282.13 3339.56,-264.77 3362.71,-251.91"/>
<polygon fill="black" stroke="black" points="3364.42,-254.96 3371.46,-247.05 3361.02,-248.84 3364.42,-254.96"/>
</g>
<!-- pthread_create -->
<g id="node40" class="node">
<title>pthread_create</title>
<ellipse fill="none" stroke="black" stroke-dasharray="5,2" cx="3504.14" cy="-234" rx="62.29" ry="18"/>
<text text-anchor="middle" x="3504.14" y="-230.3" font-family="Times,serif" font-size="14.00">pthread_create</text>
</g>
<!-- main&#45;&gt;pthread_create -->
<g id="edge54" class="edge">
<title>main&#45;&gt;pthread_create</title>
<path fill="none" stroke="black" d="M3292.51,-297.51C3330.49,-286.29 3402.96,-264.88 3452.41,-250.28"/>
<polygon fill="black" stroke="black" points="3453.69,-253.55 3462.28,-247.36 3451.7,-246.84 3453.69,-253.55"/>
</g>
<!-- startup -->
<g id="node41" class="node">
<title>startup</title>
<ellipse fill="none" stroke="black" cx="2874.14" cy="-234" rx="34.39" ry="18"/>
<text text-anchor="middle" x="2874.14" y="-230.3" font-family="Times,serif" font-size="14.00">startup</text>
</g>
<!-- main&#45;&gt;startup -->
<g id="edge55" class="edge">
<title>main&#45;&gt;startup</title>
<path fill="none" stroke="black" d="M3239.82,-300.13C3172.35,-288.12 2997.47,-256.97 2916.47,-242.54"/>
<polygon fill="black" stroke="black" points="2916.6,-239.01 2906.14,-240.7 2915.37,-245.9 2916.6,-239.01"/>
</g>
<!-- startup&#45;&gt;_OSSwapInt16 -->
<g id="edge69" class="edge">
<title>startup&#45;&gt;_OSSwapInt16</title>
<path fill="none" stroke="black" d="M2904.14,-225.11C2947.89,-213.59 3029.94,-192 3084.82,-177.56"/>
<polygon fill="black" stroke="black" points="3085.96,-180.88 3094.74,-174.95 3084.17,-174.11 3085.96,-180.88"/>
</g>
<!-- startup&#45;&gt;error_die -->
<g id="edge70" class="edge">
<title>startup&#45;&gt;error_die</title>
<path fill="none" stroke="black" d="M2840.31,-229.49C2779.19,-222.76 2646.55,-206.31 2537.14,-180 2533.72,-179.18 2530.19,-178.23 2526.66,-177.22"/>
<polygon fill="black" stroke="black" points="2527.4,-173.79 2516.81,-174.24 2525.37,-180.49 2527.4,-173.79"/>
</g>
<!-- *_bind -->
<g id="node44" class="node">
<title>*_bind</title>
<ellipse fill="none" stroke="black" stroke-dasharray="5,2" cx="2581.14" cy="-162" rx="35.19" ry="18"/>
<text text-anchor="middle" x="2581.14" y="-158.3" font-family="Times,serif" font-size="14.00">*_bind</text>
</g>
<!-- startup&#45;&gt;*_bind -->
<g id="edge66" class="edge">
<title>startup&#45;&gt;*_bind</title>
<path fill="none" stroke="black" d="M2841.5,-227.76C2793.52,-219.67 2701.4,-202.69 2625.14,-180 2622.51,-179.22 2619.81,-178.35 2617.11,-177.43"/>
<polygon fill="black" stroke="black" points="2618.03,-174.04 2607.43,-173.94 2615.65,-180.62 2618.03,-174.04"/>
</g>
<!-- *_getsockname -->
<g id="node45" class="node">
<title>*_getsockname</title>
<ellipse fill="none" stroke="black" stroke-dasharray="5,2" cx="2700.14" cy="-162" rx="65.79" ry="18"/>
<text text-anchor="middle" x="2700.14" y="-158.3" font-family="Times,serif" font-size="14.00">*_getsockname</text>
</g>
<!-- startup&#45;&gt;*_getsockname -->
<g id="edge67" class="edge">
<title>startup&#45;&gt;*_getsockname</title>
<path fill="none" stroke="black" d="M2847.72,-222.37C2820.46,-211.4 2777.46,-194.1 2744.89,-181"/>
<polygon fill="black" stroke="black" points="2746.16,-177.74 2735.57,-177.25 2743.54,-184.23 2746.16,-177.74"/>
</g>
<!-- *_listen -->
<g id="node46" class="node">
<title>*_listen</title>
<ellipse fill="none" stroke="black" stroke-dasharray="5,2" cx="2822.14" cy="-162" rx="38.19" ry="18"/>
<text text-anchor="middle" x="2822.14" y="-158.3" font-family="Times,serif" font-size="14.00">*_listen</text>
</g>
<!-- startup&#45;&gt;*_listen -->
<g id="edge68" class="edge">
<title>startup&#45;&gt;*_listen</title>
<path fill="none" stroke="black" d="M2862.08,-216.76C2855.59,-208.02 2847.44,-197.05 2840.2,-187.31"/>
<polygon fill="black" stroke="black" points="2842.91,-185.09 2834.14,-179.15 2837.29,-189.26 2842.91,-185.09"/>
</g>
<!-- setsockopt -->
<g id="node47" class="node">
<title>setsockopt</title>
<ellipse fill="none" stroke="black" stroke-dasharray="5,2" cx="2926.14" cy="-162" rx="48.19" ry="18"/>
<text text-anchor="middle" x="2926.14" y="-158.3" font-family="Times,serif" font-size="14.00">setsockopt</text>
</g>
<!-- startup&#45;&gt;setsockopt -->
<g id="edge71" class="edge">
<title>startup&#45;&gt;setsockopt</title>
<path fill="none" stroke="black" d="M2886.2,-216.76C2892.61,-208.14 2900.62,-197.36 2907.78,-187.73"/>
<polygon fill="black" stroke="black" points="2910.63,-189.75 2913.79,-179.63 2905.01,-185.57 2910.63,-189.75"/>
</g>
<!-- socket -->
<g id="node48" class="node">
<title>socket</title>
<ellipse fill="none" stroke="black" stroke-dasharray="5,2" cx="3025.14" cy="-162" rx="33.29" ry="18"/>
<text text-anchor="middle" x="3025.14" y="-158.3" font-family="Times,serif" font-size="14.00">socket</text>
</g>
<!-- startup&#45;&gt;socket -->
<g id="edge72" class="edge">
<title>startup&#45;&gt;socket</title>
<path fill="none" stroke="black" d="M2899.08,-221.44C2924.26,-209.77 2963.32,-191.66 2991.28,-178.7"/>
<polygon fill="black" stroke="black" points="2993.07,-181.73 3000.67,-174.34 2990.13,-175.37 2993.07,-181.73"/>
</g>
</g>
</svg>
