<?xml version="1.0" encoding="UTF-8" standalone="no"?>
<!DOCTYPE svg PUBLIC "-//W3C//DTD SVG 1.1//EN"
 "http://www.w3.org/Graphics/SVG/1.1/DTD/svg11.dtd">
<!-- Generated by graphviz version 2.47.1 (20210417.1919)
 -->
<!-- Title: callgraph Pages: 1 -->
<svg width="887pt" height="188pt"
 viewBox="0.00 0.00 886.54 188.00" xmlns="http://www.w3.org/2000/svg" xmlns:xlink="http://www.w3.org/1999/xlink">
<g id="graph0" class="graph" transform="scale(1 1) rotate(0) translate(4 184)">
<title>callgraph</title>
<polygon fill="white" stroke="transparent" points="-4,4 -4,-184 882.54,-184 882.54,4 -4,4"/>
<!-- _OSSwapInt16 -->
<g id="node1" class="node">
<title>_OSSwapInt16</title>
<ellipse fill="none" stroke="black" cx="167.9" cy="-18" rx="64.19" ry="18"/>
<text text-anchor="middle" x="167.9" y="-14.3" font-family="Times,serif" font-size="14.00">_OSSwapInt16</text>
</g>
<!-- accept_request -->
<g id="node2" class="node">
<title>accept_request</title>
<ellipse fill="none" stroke="black" cx="565.9" cy="-162" rx="63.09" ry="18"/>
<text text-anchor="middle" x="565.9" y="-158.3" font-family="Times,serif" font-size="14.00">accept_request</text>
</g>
<!-- execute_cgi -->
<g id="node3" class="node">
<title>execute_cgi</title>
<ellipse fill="none" stroke="black" cx="646.9" cy="-90" rx="52.79" ry="18"/>
<text text-anchor="middle" x="646.9" y="-86.3" font-family="Times,serif" font-size="14.00">execute_cgi</text>
</g>
<!-- accept_request&#45;&gt;execute_cgi -->
<g id="edge1" class="edge">
<title>accept_request&#45;&gt;execute_cgi</title>
<path fill="none" stroke="black" d="M584.68,-144.76C595.39,-135.51 608.97,-123.77 620.71,-113.63"/>
<polygon fill="black" stroke="black" points="623.21,-116.09 628.49,-106.91 618.64,-110.8 623.21,-116.09"/>
</g>
<!-- get_line -->
<g id="node4" class="node">
<title>get_line</title>
<ellipse fill="none" stroke="black" cx="565.9" cy="-18" rx="38.99" ry="18"/>
<text text-anchor="middle" x="565.9" y="-14.3" font-family="Times,serif" font-size="14.00">get_line</text>
</g>
<!-- accept_request&#45;&gt;get_line -->
<g id="edge2" class="edge">
<title>accept_request&#45;&gt;get_line</title>
<path fill="none" stroke="black" d="M565.9,-143.87C565.9,-119.67 565.9,-75.21 565.9,-46.39"/>
<polygon fill="black" stroke="black" points="569.4,-46.19 565.9,-36.19 562.4,-46.19 569.4,-46.19"/>
</g>
<!-- not_found -->
<g id="node5" class="node">
<title>not_found</title>
<ellipse fill="none" stroke="black" cx="461.9" cy="-18" rx="46.59" ry="18"/>
<text text-anchor="middle" x="461.9" y="-14.3" font-family="Times,serif" font-size="14.00">not_found</text>
</g>
<!-- accept_request&#45;&gt;not_found -->
<g id="edge3" class="edge">
<title>accept_request&#45;&gt;not_found</title>
<path fill="none" stroke="black" d="M556.14,-144.08C545.34,-125.78 527.05,-96 508.9,-72 501.32,-61.99 492.31,-51.53 484.22,-42.58"/>
<polygon fill="black" stroke="black" points="486.74,-40.15 477.4,-35.15 481.58,-44.88 486.74,-40.15"/>
</g>
<!-- serve_file -->
<g id="node6" class="node">
<title>serve_file</title>
<ellipse fill="none" stroke="black" cx="454.9" cy="-90" rx="44.69" ry="18"/>
<text text-anchor="middle" x="454.9" y="-86.3" font-family="Times,serif" font-size="14.00">serve_file</text>
</g>
<!-- accept_request&#45;&gt;serve_file -->
<g id="edge4" class="edge">
<title>accept_request&#45;&gt;serve_file</title>
<path fill="none" stroke="black" d="M540.99,-145.29C524.98,-135.2 504.05,-122 486.83,-111.14"/>
<polygon fill="black" stroke="black" points="488.53,-108.07 478.21,-105.7 484.8,-114 488.53,-108.07"/>
</g>
<!-- unimplemented -->
<g id="node7" class="node">
<title>unimplemented</title>
<ellipse fill="none" stroke="black" cx="783.9" cy="-90" rx="66.09" ry="18"/>
<text text-anchor="middle" x="783.9" y="-86.3" font-family="Times,serif" font-size="14.00">unimplemented</text>
</g>
<!-- accept_request&#45;&gt;unimplemented -->
<g id="edge5" class="edge">
<title>accept_request&#45;&gt;unimplemented</title>
<path fill="none" stroke="black" d="M606.13,-148.08C641.82,-136.62 694.13,-119.82 732.77,-107.42"/>
<polygon fill="black" stroke="black" points="734.33,-110.59 742.78,-104.2 732.19,-103.93 734.33,-110.59"/>
</g>
<!-- execute_cgi&#45;&gt;get_line -->
<g id="edge8" class="edge">
<title>execute_cgi&#45;&gt;get_line</title>
<path fill="none" stroke="black" d="M628.52,-73.12C617.41,-63.52 603.11,-51.16 590.98,-40.67"/>
<polygon fill="black" stroke="black" points="593.23,-37.99 583.37,-34.1 588.65,-43.29 593.23,-37.99"/>
</g>
<!-- bad_request -->
<g id="node8" class="node">
<title>bad_request</title>
<ellipse fill="none" stroke="black" cx="675.9" cy="-18" rx="53.09" ry="18"/>
<text text-anchor="middle" x="675.9" y="-14.3" font-family="Times,serif" font-size="14.00">bad_request</text>
</g>
<!-- execute_cgi&#45;&gt;bad_request -->
<g id="edge6" class="edge">
<title>execute_cgi&#45;&gt;bad_request</title>
<path fill="none" stroke="black" d="M653.92,-72.05C657.18,-64.18 661.14,-54.62 664.8,-45.79"/>
<polygon fill="black" stroke="black" points="668.15,-46.85 668.74,-36.28 661.68,-44.17 668.15,-46.85"/>
</g>
<!-- cannot_execute -->
<g id="node9" class="node">
<title>cannot_execute</title>
<ellipse fill="none" stroke="black" cx="812.9" cy="-18" rx="65.79" ry="18"/>
<text text-anchor="middle" x="812.9" y="-14.3" font-family="Times,serif" font-size="14.00">cannot_execute</text>
</g>
<!-- execute_cgi&#45;&gt;cannot_execute -->
<g id="edge7" class="edge">
<title>execute_cgi&#45;&gt;cannot_execute</title>
<path fill="none" stroke="black" d="M678.9,-75.5C704.63,-64.65 741.04,-49.3 769.42,-37.34"/>
<polygon fill="black" stroke="black" points="770.85,-40.53 778.7,-33.42 768.13,-34.08 770.85,-40.53"/>
</g>
<!-- serve_file&#45;&gt;get_line -->
<g id="edge12" class="edge">
<title>serve_file&#45;&gt;get_line</title>
<path fill="none" stroke="black" d="M477.9,-74.5C494.49,-64.03 517.06,-49.8 535.19,-38.37"/>
<polygon fill="black" stroke="black" points="537.09,-41.3 543.68,-33.01 533.36,-35.38 537.09,-41.3"/>
</g>
<!-- serve_file&#45;&gt;not_found -->
<g id="edge14" class="edge">
<title>serve_file&#45;&gt;not_found</title>
<path fill="none" stroke="black" d="M456.63,-71.7C457.4,-63.98 458.32,-54.71 459.18,-46.11"/>
<polygon fill="black" stroke="black" points="462.67,-46.4 460.19,-36.1 455.71,-45.71 462.67,-46.4"/>
</g>
<!-- cat -->
<g id="node13" class="node">
<title>cat</title>
<ellipse fill="none" stroke="black" cx="276.9" cy="-18" rx="27" ry="18"/>
<text text-anchor="middle" x="276.9" y="-14.3" font-family="Times,serif" font-size="14.00">cat</text>
</g>
<!-- serve_file&#45;&gt;cat -->
<g id="edge11" class="edge">
<title>serve_file&#45;&gt;cat</title>
<path fill="none" stroke="black" d="M422.16,-77.66C393.18,-67.42 349.87,-51.6 312.9,-36 311.08,-35.23 309.22,-34.43 307.36,-33.6"/>
<polygon fill="black" stroke="black" points="308.63,-30.34 298.08,-29.37 305.73,-36.7 308.63,-30.34"/>
</g>
<!-- headers -->
<g id="node14" class="node">
<title>headers</title>
<ellipse fill="none" stroke="black" cx="359.9" cy="-18" rx="37.89" ry="18"/>
<text text-anchor="middle" x="359.9" y="-14.3" font-family="Times,serif" font-size="14.00">headers</text>
</g>
<!-- serve_file&#45;&gt;headers -->
<g id="edge13" class="edge">
<title>serve_file&#45;&gt;headers</title>
<path fill="none" stroke="black" d="M434.28,-73.81C420.69,-63.79 402.71,-50.55 387.84,-39.59"/>
<polygon fill="black" stroke="black" points="389.62,-36.56 379.5,-33.44 385.47,-42.19 389.62,-36.56"/>
</g>
<!-- main -->
<g id="node10" class="node">
<title>main</title>
<ellipse fill="none" stroke="black" cx="73.9" cy="-162" rx="28.7" ry="18"/>
<text text-anchor="middle" x="73.9" y="-158.3" font-family="Times,serif" font-size="14.00">main</text>
</g>
<!-- error_die -->
<g id="node11" class="node">
<title>error_die</title>
<ellipse fill="none" stroke="black" cx="42.9" cy="-18" rx="42.79" ry="18"/>
<text text-anchor="middle" x="42.9" y="-14.3" font-family="Times,serif" font-size="14.00">error_die</text>
</g>
<!-- main&#45;&gt;error_die -->
<g id="edge9" class="edge">
<title>main&#45;&gt;error_die</title>
<path fill="none" stroke="black" d="M69.95,-143.83C67.58,-133.46 64.53,-119.98 61.9,-108 57.34,-87.3 52.34,-63.85 48.62,-46.22"/>
<polygon fill="black" stroke="black" points="51.97,-45.14 46.48,-36.08 45.12,-46.58 51.97,-45.14"/>
</g>
<!-- startup -->
<g id="node12" class="node">
<title>startup</title>
<ellipse fill="none" stroke="black" cx="104.9" cy="-90" rx="34.39" ry="18"/>
<text text-anchor="middle" x="104.9" y="-86.3" font-family="Times,serif" font-size="14.00">startup</text>
</g>
<!-- main&#45;&gt;startup -->
<g id="edge10" class="edge">
<title>main&#45;&gt;startup</title>
<path fill="none" stroke="black" d="M81.24,-144.41C84.82,-136.34 89.21,-126.43 93.22,-117.35"/>
<polygon fill="black" stroke="black" points="96.54,-118.52 97.39,-107.96 90.14,-115.68 96.54,-118.52"/>
</g>
<!-- startup&#45;&gt;_OSSwapInt16 -->
<g id="edge15" class="edge">
<title>startup&#45;&gt;_OSSwapInt16</title>
<path fill="none" stroke="black" d="M118.88,-73.46C126.77,-64.69 136.82,-53.53 145.76,-43.6"/>
<polygon fill="black" stroke="black" points="148.54,-45.74 152.63,-35.96 143.34,-41.05 148.54,-45.74"/>
</g>
<!-- startup&#45;&gt;error_die -->
<g id="edge16" class="edge">
<title>startup&#45;&gt;error_die</title>
<path fill="none" stroke="black" d="M91.14,-73.46C83.25,-64.57 73.19,-53.21 64.3,-43.16"/>
<polygon fill="black" stroke="black" points="66.73,-40.63 57.48,-35.47 61.49,-45.27 66.73,-40.63"/>
</g>
</g>
</svg>
